PathFileType	4	(X/Y/Z)	RBDS017\RBDS017runT25.trc
DataRate	CameraRate	NumFrames	NumMarkers	Units	OrigDataRate	OrigDataStartFrame	OrigNumFrames
150.000000	150.000000	4	33	mm	150.000000	2250	4500
Frame#	Time	L.ASIS			L.Heel.Bottom			L.Heel.Lateral			L.Heel.Top			L.Iliac.Crest			L.MT1			L.MT5			L.PSIS			L.Shank.Bottom.Lateral			L.Shank.Bottom.Medial			L.Shank.Top.Lateral			L.Shank.Top.Medial			L.Thigh.Bottom.Lateral			L.Thigh.Bottom.Medial			L.Thigh.Top.Lateral			L.Thigh.Top.Medial			R.ASIS			R.ASY			R.Heel.Bottom			R.Heel.Lateral			R.Heel.Top			R.Iliac.Crest			R.MT1			R.MT5			R.PSIS			R.Shank.Bottom.Lateral			R.Shank.Bottom.Medial			R.Shank.Top.Lateral			R.Shank.Top.Medial			R.Thigh.Bottom.Lateral			R.Thigh.Bottom.Medial			R.Thigh.Top.Lateral			R.Thigh.Top.Medial			
		X1	Y1	Z1	X2	Y2	Z2	X3	Y3	Z3	X4	Y4	Z4	X5	Y5	Z5	X6	Y6	Z6	X7	Y7	Z7	X8	Y8	Z8	X9	Y9	Z9	X10	Y10	Z10	X11	Y11	Z11	X12	Y12	Z12	X13	Y13	Z13	X14	Y14	Z14	X15	Y15	Z15	X16	Y16	Z16	X17	Y17	Z17	X18	Y18	Z18	X19	Y19	Z19	X20	Y20	Z20	X21	Y21	Z21	X22	Y22	Z22	X23	Y23	Z23	X24	Y24	Z24	X25	Y25	Z25	X26	Y26	Z26	X27	Y27	Z27	X28	Y28	Z28	X29	Y29	Z29	X30	Y30	Z30	X31	Y31	Z31	X32	Y32	Z32	X33	Y33	Z33	

2251	15	2154.33704938463	993.7146585447329	845.7679305582533	1959.100262008971	34.52172304050284	957.8294757643527	1977.052437241797	56.22980135049585	921.3489178894118	1971.131528084148	79.15927811325024	963.8915043373	2078.405767390749	1080.51090749604	813.3033759571732	2190.383548908505	45.56854256093295	968.5998733726841	2138.531586530079	42.87025756895989	862.8085516860142	1984.22128665678	1061.79810310399	952.3592222284059	2078.283494699642	178.6642260405313	899.813786023231	2035.318236191696	199.2878682460504	927.5809236457386	2100.868389217794	253.646139361632	880.4848185876817	2059.254997951219	274.2702959027264	907.7359287548364	2191.689793556879	630.0156996547926	833.2610096999412	2130.950558760751	604.7482916377882	864.1804356020597	2140.714690114547	726.7724041329379	818.5888169981508	2083.603361226631	703.6916336614599	848.5266268621317	2161.389463516483	979.2270617222626	1135.842078822515	1725.309198469944	291.2616450136854	1116.155688329527	1716.782256525705	494.5329636981498	1083.841515163602	1725.204688832043	471.1624296607858	1129.17141466205	1759.421010591285	476.5638327231982	1094.484371943272	2117.109394217215	1065.204398532618	1173.076411263231	1697.655358849692	270.8911588052524	1067.329502193117	1671.211762975451	318.0257786974288	1169.829873389408	1990.645245423792	1053.987569500526	1050.367579742011	1850.051259214375	439.9640314626126	1156.352451289905	1847.090474685107	473.6003400723439	1117.934154199679	1931.387942007039	461.2267423320562	1166.972748306748	1924.035230893612	496.5088005493398	1127.92976852706	2152.574998212406	603.7598327765528	1181.136499053488	2102.113327547987	582.4408772705092	1132.579586984096	2108.217349282718	704.0723416571699	1179.201667066861	2061.193361345154	684.4169877276595	1132.004817750774	
2252	15.00666666666667	2153.898601012343	993.3640904634228	845.7715347429134	1942.211919932446	34.87985402304933	957.6987446259182	1960.243832523595	56.49865501221055	921.1245360944523	1954.229617729435	79.52010019228339	963.6045577231533	2077.78198392131	1080.731821236173	813.0550497626026	2173.435439129871	45.25080971593469	968.4103927357629	2121.588061067012	42.4930668991147	862.6752973628752	1983.749472789016	1062.335702798622	952.0412790638759	2063.058105827789	178.5970172431369	899.3725445396557	2020.553759152054	199.9094050532394	927.2726391628635	2086.943668009247	253.1482055917531	880.1459525667772	2045.746845341774	274.4877527793848	907.4360065058233	2185.038182851789	627.9401848320985	832.8569455667204	2123.723580568886	603.6529962266386	863.4329820322278	2135.850790854424	725.6630213082904	818.3533888866356	2078.266339926579	703.5433006825996	848.1409821151535	2160.103442951246	979.8576527191049	1136.181019946978	1740.623059227003	286.3161895421136	1116.388124596545	1725.087029383608	489.5754192525092	1085.006703928565	1734.726129156981	466.252420320147	1130.121267501282	1768.525968236879	472.8686942159702	1095.197317247269	2114.718038208665	1066.189060142856	1173.471151492133	1713.210261588876	265.3432747568075	1067.744232240661	1686.127828823473	311.1795207837864	1170.728595278442	1989.822744818031	1054.534017607552	1050.121521030901	1861.403896057232	437.7782519376051	1156.571331397314	1857.773607708114	471.3479537123196	1118.111235815279	1942.440841944991	460.3139693825497	1166.862667383336	1934.37299504664	495.467977563743	1127.842051183941	2159.897623603908	606.0968144076254	1180.813216591279	2109.861380754053	583.3523948243306	1132.478722468458	2112.953292672853	705.1847166518967	1178.956002415847	2066.209609201532	684.1940094050321	1132.037636033131	
2253	15.01333333333333	2153.629236285591	993.7818963794348	845.9093535919554	1925.268001571315	35.39094177208468	957.5082666967454	1943.39698772635	56.88917201679823	920.8258990588359	1937.282818965172	80.03936601830438	963.2394670613427	2077.488477933919	1081.678297506189	812.975298567661	2156.460258343076	44.9069122188392	968.2031571623264	2104.610830697696	42.09519445571039	862.5106153987717	1983.420759560629	1063.517238216818	951.7751219069225	2047.578786994765	178.775109026659	898.8126710555033	2005.506419415581	200.6680434613636	926.8829832745089	2072.5840061323	252.9331504041367	879.6798954483027	2031.764135492063	274.8885922067721	907.0374678985805	2177.649615591221	626.3738746392301	832.4130868565404	2115.75007117103	603.1992813425663	862.6782518916294	2130.443448477986	725.1174968687064	818.1128227780429	2072.396130315804	704.0885637413718	847.8144488773354	2158.993572571629	981.2911893882869	1136.505326386695	1756.319565249318	280.4272933842268	1116.529340277221	1733.208969607947	483.3364701839525	1085.876589359569	1744.088805944604	460.2030050614957	1130.766332811392	1777.410915045396	468.0621328423132	1095.645655736071	2112.681082172371	1068.018209989037	1173.815075724156	1729.318985152112	258.7003579657271	1068.109699423796	1701.394804919697	303.2972930878408	1171.481762131112	1989.165634647204	1055.749281582787	1049.966131269553	1872.520313985224	434.9610032870708	1156.651032168911	1868.092467544486	468.4587631728736	1118.154146079835	1953.134818432369	459.1202017150254	1166.655424497655	1944.207680803981	494.1357577583763	1127.689951797107	2167.022150507457	609.2711381045855	1180.473203933163	2117.384229087251	585.1649126124489	1132.396564078	2117.58198622145	707.0946472158514	1178.792908606362	2071.054672749212	684.8120149868927	1132.236579720854	
2254	15.02	2153.518087235684	994.9341545586084	846.1653900490309	1908.291554144611	36.14235262985046	957.2631371476165	1926.535963405247	57.48261943333939	920.4609036944375	1920.325041262891	80.79845801063988	962.8000518755667	2077.574578378211	1083.279523237283	813.0719699323217	2139.457514552619	44.59332023102731	967.9766672363588	2087.604113096816	41.72934321790319	862.3218081658467	1983.247722535991	1065.3264075087	951.5633605652338	2031.893826647497	179.2638198066645	898.1720595864551	1990.209448579012	201.6364527445354	926.4317854681304	2057.849026931995	253.0724733250668	879.1247973665395	2017.354390833516	275.5500140364094	906.5644118282618	2169.573719131065	625.3754874342987	831.9919999344739	2107.095578607625	603.4539855519989	861.9988364483104	2124.537891423224	725.1736883209171	817.9080751257854	2066.051310361339	705.3686565314694	847.5990327685932	2158.092678583706	983.4176808929057	1136.806631774802	1772.393498028541	273.6906695884501	1116.582184203116	1741.185701241932	475.7947075677704	1086.429176248102	1753.315958534146	453.0197254130294	1131.099562647658	1786.085260319169	462.1352878506348	1095.819974968952	2111.036480894135	1070.533177148505	1174.109223851684	1745.997538979094	251.0722889670847	1068.430948852404	1717.033774089118	294.4808432379327	1172.094173267097	1988.685781568634	1057.608066585912	1049.897300533328	1883.381839971708	431.5202769083014	1156.583684776184	1878.03429577563	464.9340258314969	1118.062135110096	1963.432290598073	457.6296023246542	1166.353841700364	1953.513726864758	492.4880880768651	1127.475450494234	2173.915042686712	613.2367923294348	1180.15365882078	2124.636110820618	587.8460268264074	1132.367605370452	2122.09558547011	709.7767981164187	1178.742189050708	2075.713890016872	686.2539804351825	1132.63061870923	
